<svg xmlns="http://www.w3.org/2000/svg" xmlns:xlink="http://www.w3.org/1999/xlink" version="1.1" width="256" height="256" viewBox="0 0 256 256" xml:space="preserve">
<g style="stroke: none; stroke-width: 0; stroke-dasharray: none; stroke-linecap: butt; stroke-linejoin: miter; stroke-miterlimit: 10; fill: none; fill-rule: nonzero; opacity: 1;" transform="translate(1.4065934065934016 1.4065934065934016) scale(2.81 2.81)">
	<path d="M 83.349 0 H 6.651 C 2.978 0 0 2.887 0 6.447 v 77.106 C 0 87.114 2.978 90 6.651 90 h 76.698 C 87.022 90 90 87.114 90 83.553 V 6.447 C 90 2.887 87.022 0 83.349 0 z M 27.282 75.339 H 13.688 v -40.64 h 13.594 V 75.339 z M 20.485 29.151 h -0.088 c -4.562 0 -7.512 -3.121 -7.512 -7.021 c 0 -3.988 3.04 -7.022 7.69 -7.022 c 4.651 0 7.513 3.034 7.601 7.022 C 28.176 26.03 25.225 29.151 20.485 29.151 z M 76.299 75.339 H 62.707 V 53.598 c 0 -5.463 -1.968 -9.19 -6.887 -9.19 c -3.756 0 -5.992 2.513 -6.975 4.94 c -0.359 0.868 -0.447 2.081 -0.447 3.296 v 22.695 H 34.804 c 0 0 0.178 -36.826 0 -40.64 h 13.594 v 5.756 c 1.806 -2.769 5.036 -6.709 12.251 -6.709 c 8.944 0 15.65 5.808 15.65 18.291 V 75.339 z" style="stroke: none; stroke-width: 1; stroke-dasharray: none; stroke-linecap: butt; stroke-linejoin: miter; stroke-miterlimit: 10; fill: rgb(0,0,0); fill-rule: nonzero; opacity: 1;" transform=" matrix(1 0 0 1 0 0) " stroke-linecap="round"/>
</g>
</svg>